<?xml version="1.0" encoding="UTF-8"?>
<svg width="512" height="512" version="1.1" viewBox="0 0 135.47 135.47" xmlns="http://www.w3.org/2000/svg" xmlns:cc="http://creativecommons.org/ns#" xmlns:dc="http://purl.org/dc/elements/1.1/" xmlns:rdf="http://www.w3.org/1999/02/22-rdf-syntax-ns#" xmlns:xlink="http://www.w3.org/1999/xlink">
 <defs>
  <linearGradient id="linearGradient4825" x1="228.57" x2="1060" y1="328.23" y2="172.52" gradientUnits="userSpaceOnUse">
   <stop stop-color="#da892f" offset="0"/>
   <stop stop-color="#bbc027" offset="1"/>
  </linearGradient>
 </defs>
 <metadata>
  <rdf:RDF>
   <cc:Work rdf:about="">
    <dc:format>image/svg+xml</dc:format>
    <dc:type rdf:resource="http://purl.org/dc/dcmitype/StillImage"/>
    <dc:title/>
    <cc:license rdf:resource="http://creativecommons.org/licenses/by/4.0/"/>
   </cc:Work>
   <cc:License rdf:about="http://creativecommons.org/licenses/by/4.0/">
    <cc:permits rdf:resource="http://creativecommons.org/ns#Reproduction"/>
    <cc:permits rdf:resource="http://creativecommons.org/ns#Distribution"/>
    <cc:requires rdf:resource="http://creativecommons.org/ns#Notice"/>
    <cc:requires rdf:resource="http://creativecommons.org/ns#Attribution"/>
    <cc:permits rdf:resource="http://creativecommons.org/ns#DerivativeWorks"/>
   </cc:License>
  </rdf:RDF>
 </metadata>
 <g transform="matrix(.53539 0 0 .53539 -20.061 38.807)">
  <path transform="scale(.26458)" d="m620.91-273.95c-149.76 0-270.33 120.57-270.33 270.33v107.28h-28.207c-46.538 0-84.004 37.466-84.004 84.004v410.69c0 46.538 37.466 84.004 84.004 84.004h594.8c46.538 0 84.002-37.466 84.002-84.004v-410.69c0-46.538-37.464-84.004-84.002-84.004h-25.928v-107.28c0-149.76-120.57-270.33-270.33-270.33zm-2.9766 87.498c104.1 0 187.91 83.808 187.91 187.91v102.21h-375.81v-102.21c0-104.1 83.806-187.91 187.91-187.91z" fill="url(#linearGradient4825)" style="paint-order:stroke fill markers"/>
  <g fill="#030f34">
   <path transform="scale(.26458)" d="m540.47 285.93a311.8 235.51 0 0 0-185.5 105.18 311.8 235.51 0 0 0 197.15 107.54 127.84 127.84 0 0 1-63.332-110.21 127.84 127.84 0 0 1 51.686-102.51zm209.51 12.682-19.033 32.738a127.84 127.84 0 0 1 13.506 57.088 127.84 127.84 0 0 1-66.504 112.01 311.8 235.51 0 0 0 209.7-109.46 311.8 235.51 0 0 0-137.67-92.371z" style="paint-order:stroke fill markers"/>
   <rect transform="matrix(.87093 .49141 -.48814 .87276 0 0)" x="194.75" y="-51.936" width="9.4496" height="121.94" rx="4.7248" ry="6.815" style="paint-order:stroke fill markers"/>
   <ellipse cx="148.75" cy="86.306" rx="6.0671" ry="6.1185" style="paint-order:stroke fill markers"/>
  </g>
 </g>
</svg>
