<svg height="511.9995pt" viewBox="0 0 511.9995 511.9995" width="511.9995pt" xmlns="http://www.w3.org/2000/svg"><path d="m224.179688 287.820312c-40.941407-40.941406-107.550782-40.941406-148.492188 0l-44.980469 44.980469c-40.941406 40.941407-40.941406 107.550781 0 148.492188 40.941407 40.941406 107.550781 40.941406 148.492188 0l44.980469-44.980469c40.941406-40.941406 40.941406-107.550781 0-148.492188zm-87.40625 151.046876c-17.609376 17.605468-46.035157 17.609374-63.640626 0-17.609374-17.605469-17.605468-46.035157 0-63.640626l44.980469-44.980468c17.609375-17.605469 46.03125-17.605469 63.640625 0 17.609375 17.605468 17.605469 46.03125 0 63.640625zm0 0" fill="#6e6e6e"/><path d="m224.179688 436.3125-44.980469 44.980469c-40.941407 40.941406-107.550781 40.941406-148.492188 0l42.425781-42.425781c17.605469 17.609374 46.03125 17.605468 63.640626 0l44.980468-44.980469c17.605469-17.609375 17.605469-46.03125 0-63.640625l42.425782-42.425782c40.941406 40.941407 40.941406 107.550782 0 148.492188zm0 0" fill="#5a5a5a"/><path d="m481.292969 30.707031c-40.941407-40.941406-107.550781-40.941406-148.492188 0l-44.980469 44.980469c-40.941406 40.941406-40.941406 107.550781 0 148.492188 40.941407 40.941406 107.550782 40.941406 148.492188 0l44.980469-44.980469c40.941406-40.941407 40.941406-107.550781 0-148.492188zm-87.40625 151.046875c-17.605469 17.605469-46.03125 17.605469-63.640625 0-17.609375-17.605468-17.605469-46.035156 0-63.640625l44.980468-44.980469c17.609376-17.609374 46.03125-17.609374 63.640626 0 17.609374 17.605469 17.609374 46.03125 0 63.640626zm0 0" fill="#6e6e6e"/><g fill="#ffd400"><path d="m409.242188 305.421875-9.488282 28.464844-63.640625-21.214844 9.488281-28.460937zm0 0"/><path d="m312.644531 336.101562 21.210938 63.640626-28.464844 9.488281-21.210937-63.640625zm0 0"/><path d="m206.585938 102.761719 21.210937 63.640625-28.464844 9.488281-21.210937-63.640625zm0 0"/><path d="m175.890625 199.347656-9.484375 28.464844-63.640625-21.210938 9.484375-28.464843zm0 0"/></g><path d="m481.292969 179.199219-44.980469 44.980469c-40.941406 40.941406-107.550781 40.941406-148.492188 0l42.425782-42.425782c17.605468 17.605469 46.035156 17.605469 63.640625 0l44.980469-44.980468c17.609374-17.609376 17.609374-46.035157 0-63.640626l42.425781-42.425781c40.941406 40.941407 40.941406 107.550781 0 148.492188zm0 0" fill="#5a5a5a"/><path d="m372.671875 139.328125c-17.605469-17.609375-46.03125-17.609375-63.640625 0l-74.246094 74.246094 63.640625 63.636719 74.246094-74.246094c17.609375-17.605469 17.609375-46.03125 0-63.636719zm0 0" fill="#ffd400"/><path d="m372.671875 202.964844-74.246094 74.246094-31.820312-31.816407 106.066406-106.066406c17.609375 17.605469 17.609375 46.03125 0 63.636719zm0 0" fill="#ff9f00"/><path d="m213.574219 234.785156-74.246094 74.246094c-17.605469 17.609375-17.605469 46.035156 0 63.640625 17.605469 17.609375 46.035156 17.605469 63.640625 0l74.246094-74.246094zm0 0" fill="#ffd400"/><path d="m245.394531 266.605469 31.816407 31.820312-74.246094 74.246094c-17.605469 17.605469-46.03125 17.609375-63.636719 0zm0 0" fill="#ff9f00"/></svg>