<svg height="511pt" viewBox="1 -20 511.999 511" width="511pt" xmlns="http://www.w3.org/2000/svg"><g fill-rule="evenodd"><path d="m7.558594 76.503906h496.882812v-46.929687c0-11.847657-9.675781-21.519531-21.527344-21.519531h-453.828124c-11.851563 0-21.527344 9.671874-21.527344 21.519531zm0 0" fill="#e6e6e6"/><path d="m504.441406 76.503906h-496.882812v299.488282c0 11.847656 9.675781 21.519531 21.527344 21.519531h453.828124c11.851563 0 21.527344-9.671875 21.527344-21.519531zm0 0" fill="#1684ba"/><path d="m453.882812 144.464844h-395.765624c-6.242188 0-11.339844 5.09375-11.339844 11.304687v59.546875c0 6.210938 5.097656 11.304688 11.339844 11.304688h395.765624c6.242188 0 11.339844-5.09375 11.339844-11.304688v-59.546875c0-6.210937-5.097656-11.304687-11.339844-11.304687zm0 0" fill="#ffac38"/><path d="m35.328125 375.992188v-299.488282h-27.769531v299.488282c0 11.847656 9.675781 21.519531 21.527344 21.519531h27.800781c-11.855469 0-21.558594-9.671875-21.558594-21.519531zm0 0" fill="#036887"/><path d="m7.558594 76.503906h27.769531v-46.929687c0-11.847657 9.703125-21.519531 21.558594-21.519531h-27.800781c-11.851563 0-21.527344 9.671874-21.527344 21.519531zm0 0" fill="#c5c3d2"/><path d="m314.261719 299.472656 49.46875 64.644532c.886719-.972657 1.863281-1.859376 2.949219-2.691407l23.792968-18.085937c1.058594-.800782 2.175782-1.515625 3.347656-2.117188l-50.015624-65.355468zm0 0" fill="#e6e6e6"/><path d="m390.472656 343.34375-23.792968 18.082031c-1.085938.832031-2.0625 1.71875-2.949219 2.691407-7.269531 7.898437-8.101563 20.203124-1.375 29.046874l3.324219 4.347657 43 56.515625c7.558593 9.902344 21.84375 11.847656 31.75 4.320312l23.761718-18.085937c9.933594-7.523438 11.878906-21.804688 4.324219-31.703125l-8.390625-11.046875-37.933594-49.847657c-6.726562-8.84375-18.808594-11.332031-28.371094-6.4375-1.171874.597657-2.289062 1.3125-3.347656 2.117188zm0 0" fill="#a39b9b"/><path d="m423.507812 442.324219-34.066406-44.8125-8.90625-11.707031-3.347656-4.375c-1.519531-2.003907-2.664062-4.207032-3.4375-6.46875-2.574219-7.726563-.800781-16.453126 4.8125-22.578126l-11.882812 9.042969c-1.085938.832031-2.0625 1.71875-2.949219 2.691407-7.269531 7.898437-8.101563 20.203124-1.375 29.042968l3.324219 4.351563 43 56.515625c7.558593 9.898437 21.84375 11.847656 31.75 4.320312l23.761718-18.085937c1.085938-.828125 2.0625-1.714844 2.949219-2.660157l-11.882813 9.015626c-9.90625 7.550781-24.191406 5.605468-31.75-4.292969zm0 0" fill="#817676"/></g><path d="m426.757812 463.0625c-6.875 0-13.683593-3.089844-18.167968-8.96875l-46.324219-60.863281c-3.242187-4.261719-4.871094-9.574219-4.585937-14.953125.285156-5.308594 2.402343-10.367188 5.96875-14.238282.890624-.980468 1.859374-1.863281 2.960937-2.703124l11.882813-9.042969.152343.167969c-5.550781 6.058593-7.386719 14.667968-4.785156 22.464843.792969 2.324219 1.945313 4.488281 3.417969 6.433594l3.351562 4.378906 8.902344 11.703125 34.066406 44.8125c7.546875 9.882813 21.71875 11.800782 31.589844 4.269532l11.878906-9.015626.152344.171876c-.921875.980468-1.890625 1.855468-2.960938 2.671874l-23.761718 18.085938c-4.101563 3.117188-8.9375 4.625-13.738282 4.625zm-49.019531-109.90625-10.988281 8.359375c-1.089844.832031-2.050781 1.707031-2.933594 2.679687-7.410156 8.046876-7.984375 20.199219-1.367187 28.894532l3.320312 4.351562 43 56.515625c7.539063 9.875 21.710938 11.804688 31.589844 4.296875l23.761719-18.082031c.597656-.457031 1.167968-.933594 1.710937-1.4375l-10.503906 7.972656c-9.976563 7.605469-24.289063 5.667969-31.910156-4.316406l-42.972657-56.515625-3.351562-4.375c-1.488281-1.964844-2.648438-4.152344-3.453125-6.5-2.503906-7.523438-.929687-15.785156 4.097656-21.84375zm0 0" fill="#817676"/><path d="m376.699219 353.816406-35.15625-45.699218c-1.746094 1.375-9.648438 6.722656-13.628907 9.183593-.054687.03125-.085937.058594-.140624.085938l35.957031 46.730469c.886719-.972657 1.863281-1.859376 2.949219-2.691407zm0 0" fill="#c5c3d2" fill-rule="evenodd"/><path d="m155.453125 65.34375c67.480469-51.304688 163.761719-38.199219 215.0625 29.214844 51.332031 67.449218 38.222656 163.683594-29.230469 214.988281-67.476562 51.28125-163.757812 38.203125-215.058594-29.246094-51.335937-67.445312-38.222656-163.675781 29.226563-214.957031zm0 0" fill="#87b6e2" fill-rule="evenodd"/><path d="m186.488281 76.503906c4.125-3.917968 8.503907-7.640625 13.113281-11.160156 21.472657-16.308594 45.835938-26.125 70.742188-29.730469-39.308594-5.695312-80.765625 3.804688-114.890625 29.730469-4.636719 3.519531-8.988281 7.242188-13.109375 11.160156-20.070312 19.117188-33.953125 42.664063-41.3125 67.960938-7.730469 26.554687-8.246094 55.027344-1.089844 82.15625 2.464844 9.386718 5.871094 18.597656 10.195313 27.527344 4.378906 9.070312 9.730469 17.828124 16.089843 26.152343 34.984376 45.988281 90.894532 66.703125 144.316407 58.949219-128-18.484375-174.980469-176.128906-84.054688-262.746094zm0 0" fill="#6d90cd" fill-rule="evenodd"/><path d="m396.769531 226.621094c7.042969-26.726563 6.839844-55.171875-1.03125-82.15625-2.347656-8.070313-5.382812-16.023438-9.132812-23.75-92.15625 0-184.316407 0-276.472657 0-3.691406 7.667968-6.753906 15.625-9.101562 23.75-7.730469 26.554687-8.246094 55.027344-1.089844 82.15625 2.460938 9.386718 5.871094 18.597656 10.191406 27.527344h276.472657c4.265625-8.871094 7.671875-18.085938 10.164062-27.527344zm0 0" fill="#ffd45e" fill-rule="evenodd"/><path d="m139.449219 174.253906c.890625-10.074218 2.75-20.058594 5.585937-29.789062 2.347656-8.125 5.378906-16.082032 9.101563-23.75h-44c-3.695313 7.667968-6.757813 15.625-9.105469 23.75-7.730469 26.554687-8.246094 55.027344-1.089844 82.15625 2.464844 9.386718 5.871094 18.597656 10.195313 27.527344h44c-4.320313-8.929688-7.730469-18.140626-10.191407-27.527344-1.03125-3.894532-1.890624-7.785156-2.605468-11.734375-2.433594-13.449219-3.0625-27.125-1.890625-40.632813zm0 0" fill="#ffac38" fill-rule="evenodd"/><path d="m47.066406 36.925781h-.289062c-4.171875 0-7.554688 3.382813-7.554688 7.558594s3.382813 7.558594 7.554688 7.558594h.289062c4.171875 0 7.554688-3.382813 7.554688-7.558594s-3.382813-7.558594-7.554688-7.558594zm0 0"/><path d="m78.785156 36.925781h-.285156c-4.175781 0-7.558594 3.382813-7.558594 7.558594s3.382813 7.558594 7.558594 7.558594h.285156c4.175782 0 7.558594-3.382813 7.558594-7.558594s-3.382812-7.558594-7.558594-7.558594zm0 0"/><path d="m110.507812 37.128906h-.257812c-4.175781 0-7.558594 3.382813-7.558594 7.554688 0 4.175781 3.382813 7.558594 7.558594 7.558594h.257812c4.171876 0 7.554688-3.382813 7.554688-7.558594 0-4.171875-3.382812-7.554688-7.554688-7.554688zm0 0"/><path d="m482.914062.5h-453.828124c-16.039063 0-29.085938 13.042969-29.085938 29.074219v346.417969c0 16.03125 13.046875 29.078124 29.085938 29.078124h149.214843c4.175781 0 7.558594-3.386718 7.558594-7.558593 0-4.175781-3.382813-7.558594-7.558594-7.558594h-149.214843c-7.703126 0-13.972657-6.261719-13.972657-13.960937v-291.929688h109.753907c-13.101563 15.574219-23.058594 33.457031-29.425782 52.847656h-37.324218c-10.421876 0-18.894532 8.460938-18.894532 18.859375v59.546875c0 10.398438 8.476563 18.859375 18.894532 18.859375h36.085937c5.496094 18.074219 14.222656 35.21875 26.007813 50.699219 31.632812 41.589844 79.71875 63.464844 128.351562 63.460938 26.796875 0 53.761719-6.652344 78.226562-20.296876l27.527344 36.179688c-4.511718 7.746094-5.382812 17.234375-2.238281 25.734375h-137.648437c-4.171876 0-7.558594 3.382813-7.558594 7.558594 0 4.171875 3.386718 7.554687 7.558594 7.554687h147.492187l40.75 53.542969c5.945313 7.792969 14.972656 11.890625 24.097656 11.890625 6.371094 0 12.785157-2 18.230469-6.136719 0 0 .003906-.003906.003906-.003906l23.75-18.074219c6.417969-4.863281 10.554688-11.957031 11.644532-19.976562 1.03125-7.5625-.777344-15.054688-5.082032-21.242188h7.597656c16.035157 0 29.085938-13.042968 29.085938-29.078125v-346.414062c0-16.03125-13.046875-29.074219-29.085938-29.074219zm-467.800781 29.074219c0-7.699219 6.269531-13.960938 13.972657-13.960938h453.828124c7.703126 0 13.972657 6.261719 13.972657 13.960938v39.375h-139.503907c-56.289062-51.792969-143.527343-57.503907-206.5-9.621094-4.011718 3.046875-7.84375 6.261719-11.511718 9.621094h-124.257813zm390.417969 122.449219h48.351562c2.050782 0 3.78125 1.714843 3.78125 3.746093v59.546875c0 2.03125-1.730468 3.746094-3.78125 3.746094h-47.625c.652344-3.28125 1.21875-6.59375 1.675782-9.9375 2.628906-19.339844 1.757812-38.613281-2.402344-57.101562zm-136.160156-23.75h112.417968c2.566407 5.753906 4.75 11.652343 6.539063 17.664062.085937.441406.214844.867188.375 1.28125 5.515625 19.191406 7.023437 39.492188 4.25 59.867188-1.878906 13.824218-5.65625 27.085937-11.144531 39.503906h-266.855469c-3.09375-6.925782-5.628906-14.0625-7.585937-21.355469-.070313-.371094-.167969-.730469-.289063-1.082031-4.722656-18.152344-5.898437-37.230469-3.292969-56.371094.964844-7.109375 2.4375-14.066406 4.378906-20.835938.085938-.25.160157-.503906.222657-.765624 1.792969-6.136719 3.988281-12.113282 6.550781-17.90625h118.332031c4.171875 0 7.554688-3.382813 7.554688-7.558594 0-4.171875-3.382813-7.554688-7.554688-7.554688h-110.554687c6.730468-11.378906 15.039062-21.828125 24.757812-31.089844.105469-.097656.210938-.191406.308594-.296874 3.867188-3.660157 7.945312-7.144532 12.246094-10.414063 26.347656-20.03125 57.378906-29.710937 88.175781-29.710937 44.054687 0 87.632813 19.816406 116.300781 57.488281 3.441406 4.523437 6.589844 9.207031 9.449219 14.023437h-104.582031c-4.175782 0-7.558594 3.382813-7.558594 7.554688 0 4.175781 3.382812 7.558594 7.558594 7.558594zm-211.253906 90.789062c-2.050782 0-3.78125-1.714844-3.78125-3.746094v-59.546875c0-2.03125 1.730468-3.746093 3.78125-3.746093h33.164062c-1.007812 4.511718-1.84375 9.085937-2.472656 13.71875-2.453125 18.023437-1.859375 35.992187 1.597656 53.320312zm190.429687 114.167969c-44.0625-.003907-87.648437-19.824219-116.308594-57.503907-3.441406-4.523437-6.589843-9.207031-9.453125-14.019531h251.25c-5.816406 9.835938-12.808594 18.988281-20.875 27.273438-.160156.148437-.3125.304687-.457031.46875-4.941406 5.027343-10.273437 9.738281-15.988281 14.082031-3.859375 2.933594-7.824219 5.640625-11.871094 8.132812-.023438.015626-.046875.03125-.074219.042969-23.550781 14.484375-49.96875 21.527344-76.222656 21.523438zm97.3125-17.667969c4.03125-3.066406 7.886719-6.300781 11.574219-9.683594l25.589844 33.632813-18.070313 13.734375-25.269531-33.21875c2.082031-1.4375 4.144531-2.917969 6.175781-4.464844zm119.566406 108.710938c-.546875 4.007812-2.605469 7.546874-5.8125 9.976562l-23.757812 18.078125c-6.617188 5.03125-16.113281 3.734375-21.160157-2.878906l-43.015624-56.523438c-.0625-.078125-.121094-.164062-.1875-.242187l-3.109376-4.089844c-5.035156-6.632812-3.746093-16.121094 2.871094-21.148438l23.789063-18.085937c2.722656-2.066406 5.929687-3.066406 9.109375-3.066406 4.554687 0 9.0625 2.046875 12.023437 5.945312l46.332031 60.902344c2.425782 3.179687 3.460938 7.132813 2.917969 11.132813zm17.488281-34.320313h-19.054687l-35.652344-46.863281c-7.609375-10.007813-20.300781-13.925782-31.769531-10.90625l-28.253906-37.140625c15.8125-17.523438 27.484375-38.21875 34.304687-60.867188h51.398438c10.417969 0 18.890625-8.460937 18.890625-18.859375v-59.546875c0-10.398437-8.472656-18.859375-18.890625-18.859375h-52.550781c-5.53125-16.6875-13.84375-32.523437-24.804688-46.925781-1.539062-2.023437-3.125-3.992187-4.738281-5.925781h125.09375v291.933594c0 7.699218-6.269531 13.960937-13.972657 13.960937zm0 0"/><path d="m307.390625 207.21875c1.972656 5.152344 5.039063 7.726562 9.21875 7.726562 3.894531 0 6.640625-2.347656 8.214844-7.039062l7.445312-22.003906 7.441407 22.003906c1.660156 4.691406 4.382812 7.039062 8.21875 7.039062 4.234374 0 7.328124-2.574218 9.21875-7.726562l13.597656-36.371094c.402344-1.199218.601562-2.257812.601562-3.175781 0-2.171875-.742187-4.003906-2.175781-5.464844-1.460937-1.457031-3.292969-2.175781-5.46875-2.175781-3.777344 0-6.238281 1.917969-7.441406 5.753906l-8.132813 26.269532-7.929687-24.980469c-1.574219-4.75-4.292969-7.125-8.132813-7.125-3.546875 0-6.097656 2.375-7.613281 7.125l-8.046875 24.980469-8.128906-26.269532c-1.261719-3.835937-3.78125-5.753906-7.53125-5.753906-2.175782 0-3.976563.746094-5.410156 2.234375-1.429688 1.488281-2.117188 3.289063-2.117188 5.40625 0 1.117187.171875 2.175781.570312 3.175781zm0 0"/><path d="m192.558594 161.035156c-3.75 0-6.242188 1.914063-7.445313 5.75l-8.128906 26.242188-7.929687-24.953125c-1.578126-4.78125-4.296876-7.15625-8.132813-7.15625-3.550781 0-6.097656 2.375-7.613281 7.15625l-8.046875 24.953125-8.128907-26.242188c-1.261718-3.835937-3.78125-5.75-7.53125-5.75-2.175781 0-3.980468.742188-5.410156 2.230469-1.433594 1.488281-2.121094 3.261719-2.121094 5.378906 0 1.144531.203126 2.203125.574219 3.175781l13.597657 36.371094c1.976562 5.152344 5.070312 7.726563 9.21875 7.726563 3.894531 0 6.644531-2.347657 8.246093-7.039063l7.414063-21.976562 7.445312 21.976562c1.660156 4.691406 4.40625 7.039063 8.214844 7.039063 4.238281 0 7.328125-2.574219 9.246094-7.726563l13.570312-36.371094c.402344-1.171874.601563-2.230468.601563-3.175781 0-2.175781-.742188-3.976562-2.175781-5.4375-1.457032-1.457031-3.289063-2.171875-5.464844-2.171875zm0 0"/><path d="m246.007812 160.917969c-3.578124 0-6.125 2.375-7.644531 7.15625l-8.015625 24.953125-8.128906-26.242188c-1.261719-3.835937-3.78125-5.75-7.53125-5.75-2.203125 0-4.007812.742188-5.410156 2.230469-1.433594 1.488281-2.148438 3.261719-2.148438 5.378906 0 1.144531.199219 2.203125.601563 3.175781l13.597656 36.371094c1.976563 5.152344 5.039063 7.726563 9.21875 7.726563 3.894531 0 6.644531-2.347657 8.21875-7.039063l7.441406-21.976562 7.445313 21.976562c1.632812 4.691406 4.378906 7.039063 8.214844 7.039063 4.238281 0 7.300781-2.574219 9.222656-7.726563l13.597656-36.371094c.402344-1.171874.574219-2.230468.574219-3.175781 0-2.175781-.71875-3.976562-2.175781-5.4375-1.460938-1.457031-3.265626-2.171875-5.441407-2.171875-3.78125 0-6.242187 1.914063-7.445312 5.75l-8.128907 26.242188-7.929687-24.953125c-1.574219-4.78125-4.296875-7.15625-8.132813-7.15625zm0 0"/></svg>